<?xml version="1.0" encoding="UTF-8" standalone="no"?><!DOCTYPE svg PUBLIC "-//W3C//DTD SVG 1.1//EN" "http://www.w3.org/Graphics/SVG/1.1/DTD/svg11.dtd"><svg width="100%" height="100%" viewBox="0 0 256 256" version="1.1" xmlns="http://www.w3.org/2000/svg" xmlns:xlink="http://www.w3.org/1999/xlink" xml:space="preserve" xmlns:serif="http://www.serif.com/" style="fill-rule:evenodd;clip-rule:evenodd;stroke-linejoin:round;stroke-miterlimit:2;"><path id="fi-foot" d="M98.756,204.753l0.24,0.052c-3.253,7.228 -4.134,15.577 -1.924,23.827c5.096,19.019 24.65,30.301 43.667,25.206c15.156,-4.062 25.371,-17.31 26.324,-32.15l23.345,-87.131l-0.325,-0.086c1.538,-5.3 2.254,-10.804 2.127,-16.322c0.334,-6.366 -0.281,-12.884 -2.019,-19.372c-8.901,-33.217 -43.041,-52.928 -76.258,-44.027c-33.214,8.899 -52.928,43.041 -44.028,76.258c3.162,11.858 9.776,22.512 19.001,30.604l-0.06,0.177c10.707,11.521 14.488,27.919 9.91,42.964Zm93.647,-156.463c-7.027,1.883 -11.205,9.12 -9.323,16.147c1.883,7.027 9.12,11.205 16.147,9.322c7.027,-1.883 11.205,-9.12 9.322,-16.147c-1.883,-7.027 -9.12,-11.205 -16.146,-9.322Zm-26.512,-24.012c-7.027,1.883 -11.205,9.119 -9.322,16.146c1.883,7.027 9.119,11.205 16.146,9.322c7.027,-1.883 11.205,-9.119 9.322,-16.146c-1.883,-7.027 -9.119,-11.205 -16.146,-9.322Zm-99.157,-22.427c-14.192,3.803 -22.625,18.409 -18.822,32.601c3.803,14.192 18.409,22.625 32.601,18.823c14.192,-3.803 22.625,-18.41 18.823,-32.602c-3.803,-14.192 -18.41,-22.625 -32.602,-18.822Zm57.822,6.705c-8.852,2.372 -14.114,11.486 -11.742,20.337c2.372,8.851 11.486,14.114 20.337,11.742c8.851,-2.372 14.114,-11.486 11.742,-20.337c-2.372,-8.852 -11.486,-14.114 -20.337,-11.742Z" style="fill:#434190;"/></svg>