<?xml version="1.0" encoding="UTF-8" standalone="no"?><!DOCTYPE svg PUBLIC "-//W3C//DTD SVG 1.1//EN" "http://www.w3.org/Graphics/SVG/1.1/DTD/svg11.dtd"><svg width="100%" height="100%" viewBox="0 0 256 256" version="1.1" xmlns="http://www.w3.org/2000/svg" xmlns:xlink="http://www.w3.org/1999/xlink" xml:space="preserve" xmlns:serif="http://www.serif.com/" style="fill-rule:evenodd;clip-rule:evenodd;stroke-linejoin:round;stroke-miterlimit:2;"><path d="M128,0c70.645,0 128,57.355 128,128c0,70.645 -57.355,128 -128,128c-70.645,0 -128,-57.355 -128,-128c0,-70.645 57.355,-128 128,-128Zm-37.671,178.013l0.154,0.091c-3.912,4.24 -6.445,9.8 -6.821,16.005c-0.867,14.304 10.03,26.6 24.332,27.467c11.399,0.69 21.505,-6.1 25.584,-16.125l36.203,-54.765l-0.205,-0.134c2.284,-3.304 4.047,-6.938 5.232,-10.776c1.698,-4.318 2.776,-8.959 3.072,-13.838c1.514,-24.982 -17.509,-46.46 -42.491,-47.974c-24.979,-1.514 -46.459,17.509 -47.974,42.491c-0.551,8.914 1.559,17.793 6.061,25.507l-0.082,0.108c4.735,10.422 3.564,22.613 -3.065,31.943Zm100.718,-86.417c-5.285,-0.32 -9.838,3.712 -10.158,8.997c-0.32,5.285 3.712,9.837 8.997,10.157c5.285,0.321 9.837,-3.712 10.157,-8.996c0.321,-5.285 -3.712,-9.838 -8.996,-10.158Zm-12.765,-22.688c-5.285,-0.321 -9.838,3.711 -10.158,8.996c-0.32,5.285 3.712,9.838 8.997,10.158c5.284,0.32 9.837,-3.712 10.157,-8.997c0.321,-5.285 -3.712,-9.837 -8.996,-10.157Zm-24.91,-20.383c-6.657,-0.403 -12.39,4.675 -12.794,11.332c-0.403,6.657 4.675,12.391 11.332,12.794c6.657,0.404 12.391,-4.675 12.794,-11.332c0.404,-6.657 -4.675,-12.39 -11.332,-12.794Zm-40.368,-15.959c-10.674,-0.647 -19.863,7.492 -20.51,18.165c-0.647,10.674 7.492,19.863 18.166,20.51c10.673,0.647 19.862,-7.492 20.509,-18.166c0.647,-10.673 -7.492,-19.862 -18.165,-20.509Z" style="fill:#434190;"/></svg>